<svg xmlns="http://www.w3.org/2000/svg" width="18.526" height="15.438" viewBox="0 0 18.526 15.438">
  <g id="photo-camera" transform="translate(0 -42.667)">
    <g id="Group_248" data-name="Group 248" transform="translate(0 42.667)">
      <g id="Group_247" data-name="Group 247">
        <circle id="Ellipse_111" data-name="Ellipse 111" cx="3.86" cy="3.86" r="3.86" transform="translate(5.403 4.631)" fill="#1f8ae3"/>
        <path id="Path_613" data-name="Path 613" d="M16.982,44.983H14.534a1.151,1.151,0,0,1-.819-.339L12.3,43.232a1.918,1.918,0,0,0-1.365-.565H7.587a1.918,1.918,0,0,0-1.365.565L4.811,44.643a1.151,1.151,0,0,1-.819.339H1.544A1.545,1.545,0,0,0,0,46.526V56.561a1.545,1.545,0,0,0,1.544,1.544H16.982a1.545,1.545,0,0,0,1.544-1.544V46.526A1.545,1.545,0,0,0,16.982,44.983ZM9.263,55.789a4.631,4.631,0,1,1,4.631-4.631A4.636,4.636,0,0,1,9.263,55.789Zm6.175-6.947a.772.772,0,1,1,.772-.772A.773.773,0,0,1,15.438,48.842Z" transform="translate(0 -42.667)" fill="#1f8ae3"/>
      </g>
    </g>
  </g>
</svg>
