<svg xmlns="http://www.w3.org/2000/svg" width="17.764" height="15.434" viewBox="0 0 17.764 15.434">
  <g id="gallery" transform="translate(0 -26.907)">
    <g id="Group_249" data-name="Group 249" transform="translate(0 26.907)">
      <path id="Path_614" data-name="Path 614" d="M71.061,28.295a1.357,1.357,0,0,1,1.176,1.493L71.2,38.994a1.334,1.334,0,0,1-1.472,1.182l-.044-.006h-.068V31.733a1.357,1.357,0,0,0-1.357-1.357H56.947l.249-2.262a1.38,1.38,0,0,1,1.515-1.2Z" transform="translate(-54.482 -26.907)" fill="#1f8ae3"/>
      <path id="Path_615" data-name="Path 615" d="M15.132,236.778v.814a1.357,1.357,0,0,1-1.357,1.357H1.357A1.357,1.357,0,0,1,0,237.593v-1.9l3.732-2.714a1.538,1.538,0,0,1,1.968.09l2.488,2.171a1.606,1.606,0,0,0,1.855.158l5.089-2.986Z" transform="translate(0 -223.516)" fill="#506de2"/>
      <path id="Path_616" data-name="Path 616" d="M15.132,108.382v4.071l-5.089,2.986a1.606,1.606,0,0,1-1.855-.158L5.7,113.11a1.538,1.538,0,0,0-1.968-.09L0,115.733v-7.351a1.357,1.357,0,0,1,1.357-1.357H13.775A1.357,1.357,0,0,1,15.132,108.382Z" transform="translate(0 -103.556)" fill="#d6edff"/>
    </g>
    <circle id="Ellipse_112" data-name="Ellipse 112" cx="1.448" cy="1.448" r="1.448" transform="translate(7.6 32.638)" fill="#1f8ae3"/>
  </g>
</svg>
