<?xml version="1.0" encoding="UTF-8"?>
<svg xmlns="http://www.w3.org/2000/svg" viewBox="0.02 0 134.98 135">
  <g id="Layer_2" data-name="Layer 2">
    <g id="Layer_1-2" data-name="Layer 1">
      <path class="cls-1" d="M132.65,99.11,112.52,79.32V44.9A44.91,44.91,0,0,0,67.61,0h0A45.17,45.17,0,0,0,22.5,45l0,34.24L2.34,99.12A7.82,7.82,0,0,0,7.83,112.5H45a22.5,22.5,0,0,0,45,0h37.15A7.81,7.81,0,0,0,132.65,99.11ZM67.52,126.73A14.25,14.25,0,0,1,53.29,112.5H81.74A14.25,14.25,0,0,1,67.52,126.73Z"></path>
    </g>
  </g>
</svg>
