<?xml version="1.0" encoding="UTF-8"?>
<svg xmlns="http://www.w3.org/2000/svg" viewBox="-0.03 -0.01 180.05 128.56">
  <g id="Layer_2" data-name="Layer 2">
    <g id="Layer_1-2" data-name="Layer 1">
      <path class="cls-1" d="M162.25,91.82a36.88,36.88,0,0,1-4.2,3.77,36.27,36.27,0,0,1-44.17,0A37.12,37.12,0,0,1,110,92.17,64.06,64.06,0,0,0,96.69,78.05a51.05,51.05,0,0,1-5.77,5.18,49.87,49.87,0,0,1-60.73,0,52,52,0,0,1-5.78-5.18A63.92,63.92,0,0,0,0,122.5a5.49,5.49,0,0,0,5.45,6.05H176a4,4,0,0,0,4-4.4A46.5,46.5,0,0,0,162.25,91.82ZM92.42,120.55H8.31a56.31,56.31,0,0,1,16-31.77l1,.79a57.86,57.86,0,0,0,70.48,0c.34-.26.68-.52,1-.79a56.28,56.28,0,0,1,7,8.49,58.17,58.17,0,0,1,4.21,7.41,56,56,0,0,1,4.78,15.87Zm28.44,0a62.68,62.68,0,0,0-3.16-13.39,44.32,44.32,0,0,0,44.4-4.61,38.69,38.69,0,0,1,9.25,18Z"></path>
      <path class="cls-1" d="M136,91.15a28,28,0,1,0-28-28A28,28,0,0,0,136,91.15Zm0-48.09a20,20,0,1,1-20,20A20.07,20.07,0,0,1,136,43.06Z"></path>
      <path class="cls-1" d="M60.55,77.13A38.57,38.57,0,1,0,22,38.56,38.57,38.57,0,0,0,60.55,77.13ZM60.55,8A30.57,30.57,0,1,1,30,38.56,30.6,30.6,0,0,1,60.55,8Z"></path>
    </g>
  </g>
</svg>
