<svg fill="none" xmlns="http://www.w3.org/2000/svg" viewBox="3.06 3.06 21.88 21.88"> <path d="M24.0625 3.0625H3.9375C3.45352 3.0625 3.0625 3.45352 3.0625 3.9375V24.0625C3.0625 24.5465 3.45352 24.9375 3.9375 24.9375H24.0625C24.5465 24.9375 24.9375 24.5465 24.9375 24.0625V3.9375C24.9375 3.45352 24.5465 3.0625 24.0625 3.0625ZM18.5664 19.075C17.4563 20.0977 15.9414 20.6992 14.134 20.6992C11.5172 20.6992 9.25313 19.198 8.15117 17.0105C7.68165 16.0765 7.43724 15.0455 7.4375 14C7.4375 12.9172 7.69727 11.8945 8.15117 10.9895C9.25313 8.79922 11.5172 7.29805 14.134 7.29805C15.9387 7.29805 17.4535 7.9625 18.6156 9.04258L16.6961 10.9648C16.0016 10.3004 15.1184 9.96406 14.1367 9.96406C12.3922 9.96406 10.9156 11.1426 10.3879 12.7258C10.2539 13.1277 10.1773 13.557 10.1773 14C10.1773 14.443 10.2539 14.8723 10.3879 15.2742C10.9156 16.8574 12.3922 18.0359 14.134 18.0359C15.0363 18.0359 15.802 17.798 16.4008 17.3961C17.1117 16.9203 17.582 16.2121 17.7379 15.3727H14.134V12.7805H20.4422C20.5215 13.2207 20.5625 13.6773 20.5625 14.1504C20.5625 16.193 19.8324 17.9074 18.5664 19.075Z" fill="black"></path> </svg>