<svg fill="none" xmlns="http://www.w3.org/2000/svg" viewBox="0 1.56 23 21.88"> <path d="M11.5 5.99609C7.76763 5.99609 4.73348 8.88184 4.72835 12.4316C4.72835 13.6475 5.08772 14.834 5.7654 15.8545L5.92455 16.0986L5.24174 18.4717L7.80357 17.832L8.05 17.9736C9.08705 18.5596 10.2781 18.8721 11.4949 18.8721H11.5C15.2272 18.8721 18.3435 15.9863 18.3435 12.4365C18.3435 10.7178 17.5632 9.10156 16.2848 7.88574C15.0013 6.66504 13.3071 5.99609 11.5 5.99609ZM15.4788 15.1953C15.3094 15.6494 14.4982 16.0596 14.108 16.1133C13.4612 16.2061 12.958 16.1572 11.6694 15.6299C9.63125 14.79 8.29643 12.8369 8.19375 12.71C8.09107 12.583 7.36205 11.6602 7.36205 10.708C7.36205 9.75586 7.88571 9.28711 8.07567 9.0918C8.26049 8.89648 8.48125 8.84766 8.61987 8.84766C8.75335 8.84766 8.89196 8.84766 9.01004 8.85254C9.13326 8.85742 9.30268 8.80859 9.46696 9.18457C9.63638 9.57031 10.042 10.5225 10.0933 10.6201C10.1446 10.7178 10.1806 10.8301 10.1087 10.957C9.71853 11.6992 9.30268 11.6699 9.51317 12.0117C10.2987 13.2959 11.0842 13.7402 12.2804 14.3115C12.4857 14.4092 12.6038 14.3945 12.7219 14.2627C12.84 14.1357 13.2301 13.6963 13.3636 13.5059C13.4971 13.3105 13.6357 13.3447 13.8205 13.4082C14.0054 13.4717 15.0065 13.9404 15.2118 14.0381C15.4172 14.1357 15.5507 14.1846 15.602 14.2627C15.6482 14.3555 15.6482 14.7461 15.4788 15.1953V15.1953ZM20.5357 1.5625H2.46429C1.10379 1.5625 0 2.6123 0 3.90625V21.0938C0 22.3877 1.10379 23.4375 2.46429 23.4375H20.5357C21.8962 23.4375 23 22.3877 23 21.0938V3.90625C23 2.6123 21.8962 1.5625 20.5357 1.5625ZM11.4949 20.1758C10.1292 20.1758 8.78929 19.8486 7.60335 19.2334L3.28571 20.3125L4.44085 16.2988C3.72723 15.127 3.35246 13.7939 3.35246 12.4268C3.35759 8.15918 7.00781 4.6875 11.4949 4.6875C13.6717 4.6875 15.715 5.49316 17.2551 6.95801C18.7902 8.42285 19.7143 10.3662 19.7143 12.4365C19.7143 16.7041 15.9819 20.1758 11.4949 20.1758Z" fill="black"></path> </svg>