<?xml version="1.0" encoding="UTF-8"?>
<svg xmlns="http://www.w3.org/2000/svg" viewBox="0.05 0 135 135">
  <g id="Layer_2" data-name="Layer 2">
    <g id="Layer_1-2" data-name="Layer 1">
      <path class="cls-1" d="M130,11.22H105.39V4.14a4.14,4.14,0,1,0-8.28,0v7.08H71.64V4.14a4.14,4.14,0,1,0-8.28,0v7.08H37.89V4.14a4.14,4.14,0,0,0-8.28,0v7.08H5.05a5.06,5.06,0,0,0-5,5.06V129.92A5,5,0,0,0,5.05,135H130a5,5,0,0,0,5.05-5.05V16.28A5.06,5.06,0,0,0,130,11.22Zm-87.77,90a8.43,8.43,0,0,1-16.86,0h0a8.43,8.43,0,0,1,16.86,0Zm0-33.75a8.43,8.43,0,0,1-16.86,0h0a8.43,8.43,0,0,1,16.86,0Zm33.26,33.75a8.43,8.43,0,1,1-16.86,0h0a8.43,8.43,0,0,1,16.86,0Zm0-33.75a8.43,8.43,0,1,1-16.86,0h0a8.43,8.43,0,0,1,16.86,0Zm34.24,33.75a8.43,8.43,0,0,1-16.86,0h0a8.43,8.43,0,0,1,16.86,0Zm0-33.75a8.43,8.43,0,0,1-16.86,0h0a8.43,8.43,0,0,1,16.86,0Zm17-30.89H8.27V19.5H29.61v7.56a4.14,4.14,0,1,0,8.28,0V19.5H63.36v7.56a4.14,4.14,0,1,0,8.28,0V19.5H97.11v7.56a4.14,4.14,0,1,0,8.28,0V19.5h21.34Z"></path>
    </g>
  </g>
</svg>
