<svg width="32" height="32" viewBox="0 0 32 32" fill="none" xmlns="http://www.w3.org/2000/svg">
<path d="M9.60002 6.4C9.60002 5.5513 9.93717 4.73737 10.5373 4.13726C11.1374 3.53714 11.9513 3.2 12.8 3.2H18.5376C19.1739 3.20056 19.784 3.45378 20.2336 3.904L26.4976 10.1664C26.9473 10.6163 27.1999 11.2263 27.2 11.8624V22.4C27.2 23.2487 26.8629 24.0626 26.2628 24.6627C25.6627 25.2629 24.8487 25.6 24 25.6H12.8C11.9513 25.6 11.1374 25.2629 10.5373 24.6627C9.93717 24.0626 9.60002 23.2487 9.60002 22.4V6.4ZM12.8 4.8C12.3757 4.8 11.9687 4.96857 11.6687 5.26863C11.3686 5.56868 11.2 5.97565 11.2 6.4V22.4C11.2 22.8243 11.3686 23.2313 11.6687 23.5314C11.9687 23.8314 12.3757 24 12.8 24H24C24.4244 24 24.8313 23.8314 25.1314 23.5314C25.4315 23.2313 25.6 22.8243 25.6 22.4V12.8H20C19.3635 12.8 18.7531 12.5471 18.303 12.0971C17.8529 11.647 17.6 11.0365 17.6 10.4V4.8H12.8ZM19.2 5.1312V10.4C19.2 10.6122 19.2843 10.8157 19.4343 10.9657C19.5844 11.1157 19.7879 11.2 20 11.2H25.2688L19.2 5.1312ZM6.40002 8C6.40002 7.57565 6.5686 7.16868 6.86865 6.86863C7.16871 6.56857 7.57568 6.4 8.00002 6.4V22.4C8.00002 23.673 8.50574 24.8939 9.40591 25.7941C10.3061 26.6943 11.527 27.2 12.8 27.2H24C24 27.6243 23.8315 28.0313 23.5314 28.3314C23.2313 28.6314 22.8244 28.8 22.4 28.8H12.704C11.0321 28.8 9.42865 28.1358 8.24642 26.9536C7.06419 25.7714 6.40002 24.1679 6.40002 22.496V8Z" fill="black"/>
</svg>
