<?xml version="1.0" encoding="UTF-8"?>
<svg xmlns="http://www.w3.org/2000/svg" viewBox="0.01 -0.05 134.97 135.05">
  <g id="Layer_2" data-name="Layer 2">
    <g id="Layer_1-2" data-name="Layer 1">
      <path class="cls-1" d="M132.65,99.11,112.52,79.32V44.9a45,45,0,0,0-90,.1V79.25L2.35,99.12A7.81,7.81,0,0,0,7.83,112.5H45a22.5,22.5,0,0,0,45,0h37.15A7.82,7.82,0,0,0,132.65,99.11ZM30.5,45a37,37,0,0,1,74-.1V79.31l-74-.07Zm37,82A14.52,14.52,0,0,1,53,112.5H82A14.52,14.52,0,0,1,67.52,127Zm21-22.5H8.29l14.21-14,3.3-3.25h4.7l74,.08h4.72l3.28,3.22,14.2,14Z"></path>
    </g>
  </g>
</svg>
