<svg fill="none" xmlns="http://www.w3.org/2000/svg" viewBox="0 0 31 31.01"> <path d="M10.2971 30.0492C7.82013 30.0462 5.44536 29.0614 3.69316 27.3107C1.94096 25.5599 0.954245 23.1859 0.949219 20.709V10.2971C0.952236 7.81881 1.93807 5.4429 3.69048 3.69048C5.4429 1.93807 7.81881 0.952236 10.2971 0.949219H20.709C23.1873 0.952236 25.5632 1.93807 27.3156 3.69048C29.068 5.4429 30.0538 7.81881 30.0568 10.2971V20.709C30.0528 23.1862 29.0664 25.5608 27.314 27.3118C25.5616 29.0628 23.1862 30.0472 20.709 30.0492H10.2971ZM11.6081 23.4373C11.5596 23.6191 11.5536 23.8096 11.5905 23.9941C11.6274 24.1786 11.7062 24.3521 11.8209 24.5013C11.9371 24.6507 12.0857 24.7718 12.2556 24.8554C12.4254 24.939 12.612 24.9829 12.8013 24.9839C12.9636 24.981 13.1238 24.946 13.2725 24.8807C13.4213 24.8155 13.5556 24.7214 13.6677 24.6039L23.0497 15.237C23.2271 15.0611 23.3481 14.8363 23.3972 14.5914C23.4463 14.3465 23.4214 14.0924 23.3256 13.8617C23.2298 13.631 23.0675 13.434 22.8593 13.2959C22.6511 13.1578 22.4066 13.0848 22.1567 13.0863H18.5506L19.4018 7.54213C19.442 7.28597 19.4001 7.02365 19.282 6.79279C19.164 6.56193 18.9758 6.37439 18.7446 6.25708C18.5133 6.13977 18.2508 6.09871 17.9948 6.13979C17.7388 6.18087 17.5023 6.30198 17.3194 6.48575L7.94873 15.8526C7.77192 16.0291 7.65147 16.254 7.60264 16.499C7.55381 16.744 7.5788 16.9979 7.67444 17.2287C7.77007 17.4594 7.93206 17.6566 8.13986 17.7952C8.34766 17.9338 8.59193 18.0076 8.84172 18.0072H13.0445L11.6081 23.4373Z" fill="#1A1A1A"/> <path d="M20.7097 1.89998C22.9364 1.90199 25.0712 2.78741 26.6457 4.36188C28.2202 5.93636 29.1056 8.07123 29.1076 10.2979V20.7097C29.1036 22.9351 28.2173 25.068 26.643 26.6408C25.0688 28.2136 22.9351 29.098 20.7097 29.1H10.2979C8.07254 29.098 5.93882 28.2136 4.36456 26.6408C2.79031 25.068 1.904 22.9351 1.89998 20.7097V10.2979C1.90199 8.07123 2.78741 5.93636 4.36188 4.36188C5.93636 2.78741 8.07123 1.90199 10.2979 1.89998H20.7097ZM8.84249 18.958H11.8102L10.6893 23.1949C10.601 23.5194 10.5895 23.8599 10.6554 24.1897C10.7213 24.5194 10.863 24.8293 11.0693 25.0949C11.2738 25.3601 11.5362 25.575 11.8366 25.7232C12.1369 25.8713 12.4671 25.9489 12.802 25.9499C13.0883 25.9498 13.3716 25.893 13.6358 25.7828C13.9 25.6726 14.1396 25.5111 14.341 25.3077L23.7231 15.9104C24.0318 15.6009 24.2418 15.2068 24.3267 14.778C24.4116 14.3492 24.3675 13.9048 24.2 13.5011C24.0324 13.0973 23.749 12.7523 23.3855 12.5095C23.022 12.2667 22.5947 12.1371 22.1575 12.137H19.6571L20.3297 7.6873C20.4008 7.23304 20.3262 6.76795 20.1167 6.35868C19.9072 5.94941 19.5735 5.61696 19.1634 5.40898C18.7534 5.201 18.288 5.12817 17.834 5.20091C17.38 5.27365 16.9607 5.48824 16.6362 5.81392L7.27691 15.1846C6.9682 15.4941 6.75815 15.8882 6.67327 16.317C6.5884 16.7458 6.63251 17.1902 6.80003 17.5939C6.96755 17.9977 7.25098 18.3427 7.6145 18.5855C7.97803 18.8283 8.40535 18.9579 8.84249 18.958V18.958ZM20.7097 0H10.2979C7.5667 0 4.9474 1.08495 3.01618 3.01618C1.08495 4.9474 0 7.5667 0 10.2979V20.7097C0 23.4409 1.08495 26.0602 3.01618 27.9914C4.9474 29.9226 7.5667 31.0076 10.2979 31.0076H20.7097C23.4396 31.0056 26.0569 29.9197 27.9865 27.9887C29.9161 26.0577 31 23.4396 31 20.7097V10.2979C31 7.56802 29.9161 4.94987 27.9865 3.01886C26.0569 1.08785 23.4396 0.00201465 20.7097 0V0ZM8.84249 17.058C8.78084 17.058 8.72057 17.0397 8.6693 17.0055C8.61804 16.9713 8.57808 16.9226 8.55448 16.8656C8.53089 16.8087 8.52472 16.746 8.53675 16.6856C8.54879 16.6251 8.57848 16.5696 8.62209 16.526L17.989 7.15911C18.03 7.11555 18.0839 7.08641 18.1428 7.07603C18.2017 7.06564 18.2624 7.07458 18.3158 7.1015C18.3692 7.12842 18.4125 7.17188 18.4392 7.2254C18.4659 7.27893 18.4746 7.33964 18.464 7.3985L17.533 13.4442C17.522 13.5182 17.5272 13.5936 17.5481 13.6654C17.5691 13.7372 17.6055 13.8035 17.6546 13.8599C17.7037 13.9162 17.7645 13.9612 17.8327 13.9918C17.901 14.0224 17.975 14.0378 18.0498 14.037H22.1575C22.2192 14.0359 22.2798 14.0533 22.3314 14.0871C22.3831 14.1208 22.4234 14.1693 22.4472 14.2262C22.4709 14.2832 22.477 14.3459 22.4647 14.4064C22.4523 14.4668 22.4221 14.5222 22.3779 14.5652L12.9958 23.9511C12.9708 23.9773 12.9407 23.9983 12.9074 24.0126C12.8741 24.027 12.8383 24.0345 12.802 24.0347C12.7588 24.035 12.7161 24.0253 12.6772 24.0064C12.6383 23.9875 12.6043 23.9598 12.5779 23.9256C12.5514 23.8914 12.5332 23.8516 12.5246 23.8092C12.516 23.7669 12.5173 23.7231 12.5284 23.6813L14.1092 17.7002C14.129 17.6242 14.1311 17.5447 14.1153 17.4678C14.0995 17.391 14.0663 17.3187 14.0182 17.2567C13.9701 17.1947 13.9084 17.1445 13.8379 17.11C13.7674 17.0756 13.6899 17.0578 13.6114 17.058H8.84249Z" fill="#1A1A1A"/> </svg>