<?xml version="1.0" encoding="UTF-8"?>
<svg xmlns="http://www.w3.org/2000/svg" viewBox="-0.01 -0.01 134.81 133.82">
  <g id="Layer_2" data-name="Layer 2">
    <g id="Layer_1-2" data-name="Layer 1">
      <path class="cls-1" d="M132.8,51.52,101.15,26.07,69.8.84A3.83,3.83,0,0,0,65,.84L35.87,24.3l0,0L2,51.52a5.37,5.37,0,0,0,6.73,8.37l2.47-2v71.83a4.07,4.07,0,0,0,4.07,4.07h31.2a4.07,4.07,0,0,0,4.07-4.07V92.91a4.07,4.07,0,0,1,4.07-4.07H80.2a4.07,4.07,0,0,1,4.07,4.07v36.83a4.07,4.07,0,0,0,4.07,4.07h31.2a4.07,4.07,0,0,0,4.07-4.07V57.91l2.46,2a5.37,5.37,0,0,0,6.73-8.37Z"></path>
    </g>
  </g>
</svg>
