<?xml version="1.0" encoding="UTF-8"?>
<svg xmlns="http://www.w3.org/2000/svg" viewBox="-0.03 -7.83 180.05 136.39">
  <g id="Layer_2" data-name="Layer 2">
    <g id="Layer_1-2" data-name="Layer 1">
      <circle class="cls-1" cx="135.96" cy="63.11" r="28.05"></circle>
      <path class="cls-1" d="M96.69,78.05a51.05,51.05,0,0,1-5.77,5.18,49.89,49.89,0,0,1-60.74,0,51.93,51.93,0,0,1-5.77-5.18A64,64,0,0,0,0,122.5a5.51,5.51,0,0,0,5.46,6.05H115.62a5.51,5.51,0,0,0,5.46-6.05A63.89,63.89,0,0,0,96.69,78.05Z"></path>
      <circle class="cls-1" cx="60.55" cy="38.56" r="38.56" transform="translate(-7.24 14.94) rotate(-13.28)"></circle>
      <path class="cls-1" d="M162.25,91.81a36.88,36.88,0,0,1-4.2,3.77,35.92,35.92,0,0,1-22.08,7.5,36.62,36.62,0,0,1-9.67-1.3A73.62,73.62,0,0,1,131,121.56a15.61,15.61,0,0,1-1,7h46a4,4,0,0,0,4-4.4A46.5,46.5,0,0,0,162.25,91.81Z"></path>
    </g>
  </g>
</svg>
