<svg fill="none" xmlns="http://www.w3.org/2000/svg" viewBox="3.18 3.18 22.64 22.64"> <path d="M14.5 10.7249C12.4213 10.7249 10.7249 12.4213 10.7249 14.5C10.7249 16.5787 12.4213 18.2751 14.5 18.2751C16.5787 18.2751 18.2751 16.5787 18.2751 14.5C18.2751 12.4213 16.5787 10.7249 14.5 10.7249ZM25.8225 14.5C25.8225 12.9367 25.8366 11.3876 25.7488 9.82715C25.6611 8.01465 25.2476 6.40606 23.9222 5.08067C22.594 3.75245 20.9882 3.3418 19.1757 3.25401C17.6124 3.16622 16.0633 3.18038 14.5028 3.18038C12.9396 3.18038 11.3904 3.16622 9.82999 3.25401C8.01749 3.3418 6.4089 3.75528 5.08351 5.08067C3.75529 6.40889 3.34464 8.01465 3.25685 9.82715C3.16906 11.3904 3.18322 12.9396 3.18322 14.5C3.18322 16.0605 3.16906 17.6124 3.25685 19.1729C3.34464 20.9854 3.75812 22.5939 5.08351 23.9193C6.41173 25.2476 8.01749 25.6582 9.82999 25.746C11.3933 25.8338 12.9424 25.8196 14.5028 25.8196C16.0661 25.8196 17.6152 25.8338 19.1757 25.746C20.9882 25.6582 22.5968 25.2447 23.9222 23.9193C25.2504 22.5911 25.6611 20.9854 25.7488 19.1729C25.8395 17.6124 25.8225 16.0633 25.8225 14.5V14.5ZM14.5 20.3085C11.2857 20.3085 8.69152 17.7144 8.69152 14.5C8.69152 11.2856 11.2857 8.69151 14.5 8.69151C17.7144 8.69151 20.3085 11.2856 20.3085 14.5C20.3085 17.7144 17.7144 20.3085 14.5 20.3085ZM20.5464 9.81016C19.7959 9.81016 19.1899 9.20411 19.1899 8.45362C19.1899 7.70313 19.7959 7.09708 20.5464 7.09708C21.2969 7.09708 21.9029 7.70313 21.9029 8.45362C21.9032 8.63182 21.8682 8.80832 21.8001 8.97301C21.732 9.13769 21.6321 9.28733 21.5061 9.41334C21.3801 9.53935 21.2305 9.63926 21.0658 9.70736C20.9011 9.77545 20.7246 9.81038 20.5464 9.81016V9.81016Z" fill="black"></path> </svg>