<?xml version="1.0" encoding="UTF-8"?>
<svg xmlns="http://www.w3.org/2000/svg" viewBox="0 0 134.93 134.98">
  <g id="Layer_2" data-name="Layer 2">
    <g id="Layer_1-2" data-name="Layer 1">
      <path class="cls-1" d="M67.49,0A67.46,67.46,0,0,0,8.62,100.45L.34,126.69a6.36,6.36,0,0,0,7.23,8.18l32-5.94A67.48,67.48,0,1,0,67.49,0ZM28,79A11.48,11.48,0,1,1,39.45,67.49,11.48,11.48,0,0,1,28,79Zm39.51,0A11.48,11.48,0,1,1,79,67.49,11.48,11.48,0,0,1,67.49,79ZM107,79a11.48,11.48,0,1,1,11.47-11.48A11.48,11.48,0,0,1,107,79Z"></path>
    </g>
  </g>
</svg>
