<?xml version="1.0" encoding="UTF-8"?>
<svg xmlns="http://www.w3.org/2000/svg" viewBox="-0.02 0 136.01 135.01">
  <g id="Layer_2" data-name="Layer 2">
    <g id="Layer_1-2" data-name="Layer 1">
      <path class="cls-1" d="M68,9.17,97,32.53l19.68,15.82V127H93V93.73a12.12,12.12,0,0,0-12.1-12.1H55.09A12.12,12.12,0,0,0,43,93.73V127H19.3V48.34L40.72,31.12h0l.44-.35,0,0h0L55.9,18.91,68,9.17M68,0a4.05,4.05,0,0,0-1.15.17l-.4.16A3.14,3.14,0,0,0,66,.6a1.85,1.85,0,0,0-.37.25L50.89,12.68,36.18,24.51l0,0L2,52a5.4,5.4,0,0,0-2,4.67,5.19,5.19,0,0,0,.19,1,4.63,4.63,0,0,0,.39,1,4.84,4.84,0,0,0,.6.92,5.3,5.3,0,0,0,.7.72L2,60.4a5,5,0,0,0,.77.52l.15.08a5.14,5.14,0,0,0,.84.35l.13,0a5.12,5.12,0,0,0,.93.19h0a5.65,5.65,0,0,0,.58,0,2.3,2.3,0,0,0,.26,0,2.43,2.43,0,0,0,.38,0,4.21,4.21,0,0,0,.6-.11c.12,0,.25-.05.37-.09a4.73,4.73,0,0,0,.62-.25L8,61a5.28,5.28,0,0,0,.86-.56h0l2.49-2v72.47a4.1,4.1,0,0,0,4.11,4.1H46.89a4.1,4.1,0,0,0,4.1-4.1V93.73a4.11,4.11,0,0,1,4.1-4.1H80.92a4.11,4.11,0,0,1,4.1,4.1v37.16a4.1,4.1,0,0,0,4.1,4.1H120.6a4.1,4.1,0,0,0,4.11-4.1V58.42l2.48,2h0a5.75,5.75,0,0,0,.86.56l.3.13a4.86,4.86,0,0,0,.63.25l.36.09a4.21,4.21,0,0,0,.6.11l.38,0,.26,0a5.46,5.46,0,0,0,.58,0h0a4.79,4.79,0,0,0,.93-.19l.13,0a5.14,5.14,0,0,0,.84-.35l.15-.08a5,5,0,0,0,.77-.52l.11-.09a6,6,0,0,0,.71-.72,5.4,5.4,0,0,0,1-4.82c-.05-.16-.1-.31-.16-.46A5.73,5.73,0,0,0,134,52L102.05,26.29,70.42.85A3.79,3.79,0,0,0,68,0Z"></path>
    </g>
  </g>
</svg>
